<svg className="w-5 h-5 mr-2" viewBox="0 0 24 24">
  <path
    fill="currentColor"
    d="M12.48 10.92v2.26h6.92c-.28 1.45-1.12 2.68-2.38 3.49l1.94 1.49c1.43-1.32 2.26-3.28 2.26-5.74 0-.68-.07-1.34-.2-1.97h-8.54zm-1.92 0V8.66h-2.26v2.26H5.04v2.26h3.26v2.26h2.26v-2.26h6.92l-.02-.02c.47-.74.74-1.61.74-2.53s-.27-1.79-.74-2.53l.02-.02h-6.92zm-7.66-2.26h2.26v-2.26H3.9v2.26zm0 4.52v2.26h2.26v-2.26H3.9zm2.26 6.78c-1.43 1.32-2.26 3.28-2.26 5.74 0 .68.07 1.34.2 1.97h8.54v-2.26h-6.92c.28-1.45 1.12-2.68 2.38-3.49l-1.94-1.49z"
  />
</svg>